{"title":"American Reunion 2012 New Source Cam XviD Feel-Free","uid":7215156,"size":1043745897,"categoryP":"video","categoryS":"movies","magnet":"?xt=urn:btih:59ce00d91e36449fd66263907873e2589ee32705&amp;dn=American+Reunion+2012+New+Source+Cam+XviD+Feel-Free&amp;tr=udp%3A%2F%2Ftracker.openbittorrent.com%3A80&amp;tr=udp%3A%2F%2Fopen.demonii.com%3A1337&amp;tr=udp%3A%2F%2Ftracker.coppersurfer.tk%3A6969&amp;tr=udp%3A%2F%2Fexodus.desync.com%3A6969","seeders":1,"leechers":0,"uploader":".BONE.","files":9,"time":1335315481,"description":"Genre:Comedy\nLanguage:English &lt;a href=&quot;\nhttp://www.imdb.com/title/tt1605630/&quot; rel=&quot;nofollow&quot; target=&quot;_NEW&quot;&gt;\nhttp://www.imdb.com/title/tt1605630/&lt;/a&gt;\nSource:RiPRG Thanks!\nEncoder:Tony\n\nFormat : AVI\nFormat/Info : Audio Video Interleave\nFile size : 994 MiB\nDuration : 1h 44mn\nOverall bit rate mode : Variable\nOverall bit rate : 1 330 Kbps\n\nVideo\nID : 0\nFormat : MPEG-4 Visual\nFormat profile : Advanced Simple@L5\nFormat settings, BVOP : 2\nFormat settings, QPel : No\nFormat settings, GMC : No warppoints\nFormat settings, Matrix : Default (H.263)\nMuxing mode : Packed bitstream\nCodec ID : XVID\nCodec ID/Hint : XviD\nDuration : 1h 44mn\nBit rate : 1 228 Kbps\nWidth : 640 pixels\nHeight : 360 pixels\nDisplay aspect ratio : 16:9\nFrame rate : 29.970 fps\nColor space : YUV\nChroma subsampling : 4:2:0\nBit depth : 8 bits\nScan type : Progressive\nCompression mode : Lossy\nBits/(Pixel*Frame) : 0.178\nStream size : 918 MiB (92%)\nWriting library : XviD 62\n\nAudio\nID : 1\nFormat : MPEG Audio\nFormat version : Version 1\nFormat profile : Layer 3\nMode : Joint stereo\nMode extension : MS Stereo\nCodec ID : 55\nCodec ID/Hint : MP3\nDuration : 1h 44mn\nBit rate mode : Variable\nBit rate : 90.6 Kbps\nMinimum bit rate : 32.0 Kbps\nChannel(s) : 2 channels\nSampling rate : 32.0 KHz\nCompression mode : Lossy\nStream size : 67.7 MiB (7%)\nAlignment : Aligned on interleaves\nInterleave, duration : 36 ms (1.08 video frame)\n\nPlot:\nJim, Michelle, Stifler, and their friends reunite in East Great Falls, Michigan for their high school reunion.\n &lt;a href=&quot;\nhttp://img525.imageshack.us/img525/299/vlcsnap2012042422h03m47.png&quot; rel=&quot;nofollow&quot; target=&quot;_NEW&quot;&gt;\nhttp://img525.imageshack.us/img525/299/vlcsnap2012042422h03m47.png&lt;/a&gt; &lt;a href=&quot;\nhttp://img600.imageshack.us/img600/1609/vlcsnap2012042422h04m22.png&quot; rel=&quot;nofollow&quot; target=&quot;_NEW&quot;&gt;\nhttp://img600.imageshack.us/img600/1609/vlcsnap2012042422h04m22.png&lt;/a&gt; &lt;a href=&quot;\nhttp://img839.imageshack.us/img839/6819/vlcsnap2012042422h04m47.png&quot; rel=&quot;nofollow&quot; target=&quot;_NEW&quot;&gt;\nhttp://img839.imageshack.us/img839/6819/vlcsnap2012042422h04m47.png&lt;/a&gt; &lt;a href=&quot;\nhttp://img692.imageshack.us/img692/1296/vlcsnap2012042422h05m25d.png&quot; rel=&quot;nofollow&quot; target=&quot;_NEW&quot;&gt;\nhttp://img692.imageshack.us/img692/1296/vlcsnap2012042422h05m25d.png&lt;/a&gt;","torrent":{"xt":"urn:btih:59ce00d91e36449fd66263907873e2589ee32705","amp;dn":"American+Reunion+2012+New+Source+Cam+XviD+Feel-Free","amp;tr":["udp%3A%2F%2Ftracker.openbittorrent.com%3A80","udp%3A%2F%2Fopen.demonii.com%3A1337","udp%3A%2F%2Ftracker.coppersurfer.tk%3A6969","udp%3A%2F%2Fexodus.desync.com%3A6969"],"infoHash":"59ce00d91e36449fd66263907873e2589ee32705","infoHashBuffer":{"type":"Buffer","data":[89,206,0,217,30,54,68,159,214,98,99,144,120,115,226,88,158,227,39,5]},"announce":[],"urlList":[]}}